<svg width="800" height="800" viewBox="0 0 800 800" fill="none" xmlns="http://www.w3.org/2000/svg">
<path d="M314.336 412H544C552.832 412 560 404.832 560 396C560 387.168 552.832 380 544 380H312.344L376.704 317.16C382.952 310.912 382.952 301.544 376.704 295.296C370.456 289.048 360.32 289.424 354.08 295.672L263.4 386.552C260.4 389.552 258.712 393.72 258.712 397.96C258.712 402.2 260.4 406.32 263.4 409.32L354.088 500.016C357.216 503.144 361.304 504.712 365.4 504.712C369.496 504.712 373.592 503.16 376.72 500.032C382.968 493.784 382.968 482.136 376.72 475.888L314.336 412Z" fill="white"/>
<path d="M675.568 398.048C675.568 250.464 555.496 130.392 407.912 130.392C260.32 130.392 140.248 250.464 140.248 398.048C140.248 545.64 260.32 665.712 407.912 665.712C555.504 665.712 675.568 545.64 675.568 398.048ZM172.248 398.048C172.248 268.112 277.968 162.392 407.912 162.392C537.856 162.392 643.568 268.112 643.568 398.048C643.568 527.992 537.856 633.712 407.912 633.712C277.968 633.712 172.248 527.992 172.248 398.048Z" fill="white"/>
</svg>
