<svg width="30" height="30" viewBox="0 0 30 30" fill="none" xmlns="http://www.w3.org/2000/svg">
<g clip-path="url(#clip0_330_17)">
<path d="M13.5997 0.0586948C8.51373 0.550882 3.96685 3.63291 1.66412 8.15635C0.849665 9.75596 0.369196 11.297 0.105524 13.1544C-0.0116631 13.9747 0.00591507 16.1075 0.140681 17.0216C0.369196 18.6505 0.849665 20.1915 1.58795 21.6739C3.04693 24.6153 5.37896 26.9474 8.32623 28.4122C13.1016 30.7911 18.7501 30.463 23.2032 27.5509C24.9434 26.4142 26.5958 24.7267 27.7208 22.9337C28.1544 22.254 28.7989 20.9298 29.0919 20.1329C29.3907 19.3243 29.7364 17.9298 29.8594 17.0216C29.9942 16.1017 30.0118 13.9688 29.8946 13.1544C29.5489 10.7228 28.7754 8.64854 27.4922 6.71494C26.9532 5.89463 26.4083 5.22666 25.6465 4.45909C23.3087 2.09776 20.4024 0.632914 17.0801 0.140726C16.3653 0.0352573 14.3497 -0.0116177 13.5997 0.0586948ZM16.9629 9.58018C18.3282 9.61533 19.9805 9.76182 20.3907 9.87901C21.0938 10.0841 21.7676 10.5821 22.0254 11.0978C22.2715 11.6017 22.5001 13.4591 22.5001 14.9884C22.5001 16.4532 22.2598 18.4161 22.0313 18.8673C21.7559 19.4122 21.129 19.8985 20.4493 20.0978C18.879 20.5665 11.1211 20.5665 9.55084 20.0978C8.87115 19.8985 8.2442 19.4122 7.96881 18.8673C7.74029 18.4161 7.50006 16.4474 7.50006 15.0001C7.50006 13.4122 7.74029 11.5548 8.00982 11.0567C8.30865 10.5177 9.04107 10.0021 9.75006 9.84385C10.4649 9.68565 14.0215 9.48643 15.3809 9.5333C15.6739 9.53916 16.3829 9.5626 16.9629 9.58018Z" fill="#737373"/>
<path d="M13.1836 15V17.8828L13.4648 17.7129C14.3203 17.209 17.8652 15.0234 17.8652 15C17.8652 14.9766 14.3203 12.791 13.4648 12.2871L13.1836 12.1172V15Z" fill="#737373"/>
</g>
<defs>
<clipPath id="clip0_330_17">
<rect width="30" height="30" fill="white"/>
</clipPath>
</defs>
</svg>
