<svg width="30" height="30" viewBox="0 0 30 30" fill="none" xmlns="http://www.w3.org/2000/svg">
<path d="M9.9024 3.7207C8.04498 4.13086 6.62701 4.58789 4.87505 5.33203C4.58794 5.45508 4.54107 5.50781 4.13677 6.14648C2.20318 9.20508 0.949272 12.3516 0.380912 15.5801C0.0879435 17.2617 0.0352091 17.9941 0.0410685 20.0684C0.0469278 21.1289 0.0703653 22.1484 0.0996622 22.3242L0.146537 22.6406L0.908256 23.1621C2.81255 24.457 4.79302 25.4531 6.86724 26.1621C7.29498 26.3086 7.67584 26.4141 7.71099 26.4023C7.85748 26.3438 9.31646 24.0176 9.31646 23.8418C9.31646 23.8184 9.16412 23.7422 8.98248 23.6719C8.51959 23.4902 7.01959 22.7461 6.91998 22.6465C6.82037 22.5469 6.8438 22.5117 7.16021 22.2832L7.41216 22.1016L7.9981 22.3535C11.0919 23.6719 14.6251 24.0996 17.9004 23.5488C19.4063 23.2969 20.7774 22.8809 22.3887 22.1895C22.5938 22.1016 22.5997 22.1016 22.8575 22.3066C22.9981 22.418 23.1153 22.541 23.1153 22.5762C23.1153 22.6582 21.8907 23.3027 21.2403 23.5605C20.9825 23.666 20.7481 23.7715 20.7188 23.7949C20.6016 23.9004 22.1192 26.4199 22.3008 26.4258C22.3419 26.4258 22.6817 26.3203 23.0626 26.1855C25.2247 25.4414 27.1758 24.4629 29.0919 23.1621L29.8536 22.6406L29.8946 22.3242C29.9122 22.1484 29.9473 21.3926 29.9708 20.6543C30.1348 15.4863 28.7989 10.7754 25.8575 6.14062L25.4239 5.46094L24.6211 5.12695C23.1387 4.51172 21.2051 3.92578 19.7813 3.66211L19.254 3.5625L19.1544 3.70312C19.0958 3.77344 18.9083 4.13672 18.7383 4.50586L18.4278 5.16797L18.1348 5.13281C17.9766 5.11523 17.5899 5.06836 17.2852 5.02734C16.5586 4.93359 13.5059 4.93359 12.7442 5.02734C12.4219 5.0625 12.0294 5.10938 11.8653 5.13281L11.5723 5.16211L11.1915 4.38281C10.7461 3.47461 10.8223 3.51562 9.9024 3.7207ZM11.0977 13.3828C11.8653 13.7578 12.4219 14.4902 12.6329 15.3926C12.7501 15.8848 12.7149 16.6992 12.5508 17.1738C11.877 19.1895 9.66802 19.7988 8.23248 18.3691C7.29498 17.4316 7.06646 15.9141 7.67584 14.666C8.00982 13.9922 8.55474 13.5 9.25201 13.2598C9.57427 13.1426 9.72076 13.125 10.1544 13.1426C10.5997 13.166 10.7286 13.1953 11.0977 13.3828ZM21.0704 13.3887C22.0723 13.8809 22.6758 14.9062 22.6758 16.1133C22.6758 16.9922 22.4004 17.7188 21.8438 18.3105C20.3204 19.9453 17.8594 19.0898 17.3672 16.7578C17.1094 15.5332 17.6426 14.168 18.6329 13.5352C19.1133 13.2246 19.5176 13.1191 20.1153 13.1484C20.5665 13.166 20.6895 13.1953 21.0704 13.3887Z" fill="#737373"/>
</svg>
