<svg width="30" height="30" viewBox="0 0 30 30" fill="none" xmlns="http://www.w3.org/2000/svg">
<g clip-path="url(#clip0_330_11)">
<path d="M1.11123 6.46501C1.01748 6.50602 0.870991 6.61735 0.78896 6.70524C0.103413 7.44938 1.83779 11.8966 4.36318 15.8634C5.6288 17.8439 6.6249 19.1271 7.73818 20.2111C9.27919 21.7052 10.8905 22.7248 12.6542 23.3107C13.7733 23.6857 14.3827 23.7912 15.5839 23.8263C17.0429 23.8674 17.6581 23.7326 17.9804 23.299C18.0976 23.1408 18.1034 23.047 18.1327 21.1603C18.162 19.4845 18.1796 19.1506 18.2616 18.9631C18.3847 18.6877 18.5722 18.6115 19.0761 18.6408C20.037 18.6935 21.3905 19.7131 23.5526 22.0216C24.1854 22.7013 24.83 23.3459 24.9882 23.4631C25.5097 23.8439 25.5507 23.8498 27.8944 23.8322C29.9628 23.8146 30.0038 23.8146 30.2089 23.6799C30.7011 23.3752 30.7304 22.8654 30.3026 22.0099C29.7987 21.0138 28.6913 19.6662 26.6171 17.5392C25.9491 16.8595 25.369 16.2209 25.3163 16.1213C25.2636 16.0216 25.2226 15.8224 25.2226 15.6759C25.2226 15.4357 25.2753 15.3302 25.6972 14.7209C28.4394 10.7189 29.6288 8.70329 29.9101 7.57829C30.0683 6.94548 30.0038 6.7111 29.6171 6.51188C29.3651 6.38298 29.3183 6.38298 27.3436 6.38298C25.9784 6.38298 25.2519 6.40641 25.0995 6.45329C24.7362 6.55876 24.4374 6.85759 24.2206 7.3322C23.1483 9.67009 21.9647 11.6857 20.8222 13.1213C20.33 13.7482 19.5097 14.5392 19.1933 14.7033C18.6835 14.9611 18.3261 14.8205 18.1972 14.3224C18.1561 14.1525 18.1327 12.9103 18.1327 10.5607C18.1327 7.2443 18.1269 7.04509 18.0214 6.81071C17.8163 6.37126 17.9159 6.38298 14.664 6.38298C11.869 6.38298 11.7694 6.38884 11.5819 6.50016C11.3476 6.64665 11.1952 6.97477 11.2421 7.23845C11.2655 7.34391 11.4413 7.63688 11.6347 7.88884C12.08 8.46305 12.2499 8.79704 12.3964 9.35954C12.5019 9.76384 12.5077 10.0216 12.5077 12.7052C12.5077 14.5275 12.4843 15.6935 12.4491 15.8283C12.2323 16.5959 11.3827 16.2443 10.3515 14.967C9.00966 13.3029 7.72646 10.8654 6.47255 7.57829C6.24404 6.96891 6.0038 6.64079 5.69326 6.4943C5.46474 6.3947 5.28896 6.38298 3.36708 6.38884C1.76162 6.38884 1.24599 6.40641 1.11123 6.46501Z" fill="#737373"/>
</g>
<defs>
<clipPath id="clip0_330_11">
<rect width="30" height="30" fill="white"/>
</clipPath>
</defs>
</svg>
