<svg width="30" height="30" viewBox="0 0 30 30" fill="none" xmlns="http://www.w3.org/2000/svg">
<path d="M26.0742 4.18366C25.8633 4.25983 20.4199 6.34577 13.9805 8.81257C6.76173 11.5782 2.21486 13.3477 2.12697 13.4298C1.94532 13.5997 1.85157 13.9395 1.89845 14.2149C1.9922 14.6895 2.0215 14.7012 5.40236 15.8438C7.98048 16.7169 8.50197 16.8751 8.60743 16.8223C8.67189 16.7813 9.42189 16.3301 10.2656 15.8087C11.1152 15.293 14.3086 13.336 17.3672 11.4669C23.0742 7.98054 23.1152 7.96296 23.1152 8.29694C23.1152 8.36726 21.2285 10.1426 17.8008 13.3008C14.877 15.9903 12.4219 18.2579 12.3399 18.3399C12.2051 18.4864 12.1992 18.545 12.0059 21.2813C11.8711 23.2501 11.8301 24.129 11.8711 24.2403C11.9356 24.4337 12.1934 24.5743 12.375 24.5157C12.4453 24.4981 13.2656 23.7305 14.2031 22.8165C15.1406 21.9024 15.9258 21.1524 15.9492 21.1524C15.9785 21.1524 17.3672 22.1837 19.0313 23.4493C20.6953 24.7149 22.1543 25.7989 22.2656 25.8575C22.7109 26.0919 23.3555 25.9044 23.666 25.4591C23.7656 25.3126 24.2871 23.0333 25.957 15.4395C27.1524 10.0313 28.125 5.52546 28.125 5.43171C28.125 5.08015 27.9844 4.78132 27.6856 4.48249C27.2285 4.0196 26.7656 3.93757 26.0742 4.18366Z" fill="#737373"/>
</svg>
